<svg width="26" height="32" viewBox="0 0 26 32" fill="none" xmlns="http://www.w3.org/2000/svg">
<path d="M18.9771 8.01821C19.2409 8.55959 19.4607 8.99855 19.6805 9.45214C19.7245 9.45214 19.7685 9.45214 19.8124 9.45214C20.3986 8.106 20.9702 6.75986 21.5564 5.39909C21.5857 5.39909 21.6004 5.39909 21.6297 5.39909C21.6004 5.76489 21.5711 6.11605 21.5418 6.48185C21.4978 6.84765 21.4538 7.19882 21.3952 7.56462C21.4245 7.57925 21.4538 7.60851 21.4832 7.62314C21.7323 7.34514 21.9961 7.08176 22.3039 6.74523C22.3185 6.90618 22.3332 7.02323 22.3185 7.12566C22.2452 7.88652 21.9375 8.50106 21.2633 8.91076C21.1314 8.98392 21.0435 9.1595 20.9995 9.30582C20.2668 11.8518 18.9917 14.1051 17.321 16.1536C17.2624 16.2414 17.1744 16.2999 17.0425 16.4609C16.7494 15.7439 16.4417 15.0854 16.2072 14.4124C15.3718 11.9396 15.2692 9.43751 16.1925 6.95007C17.1744 4.28706 19.0064 2.37027 21.5271 1.09729C22.4944 0.599801 23.5056 0.277898 24.5608 0.0437867C24.722 -0.000109239 24.8832 -0.073269 24.9565 0.190106C25.5427 2.15079 25.8651 4.15537 25.6746 6.21848C25.4255 9.02781 24.5022 11.6177 23.1685 14.0612C21.8056 16.5486 20.1202 18.802 18.1417 20.8358C16.515 22.5185 14.8149 24.1426 13.1589 25.7814C13.0709 25.8692 12.939 25.9277 12.8071 26.0155C13.7304 27.2007 14.5804 28.2981 15.4451 29.4101C15.5623 29.3223 15.6503 29.2638 15.7236 29.1907C16.7201 28.2688 17.7167 27.3324 18.7279 26.4106C18.9478 26.2204 18.8891 26.0887 18.7133 25.9131C18.0977 25.2108 17.4969 24.4792 16.896 23.7622C16.8374 23.7037 16.8081 23.6305 16.7348 23.5281C17.1744 23.1184 17.6141 22.7087 18.0684 22.2844C19.2262 23.6013 20.3547 24.9035 21.5125 26.235C21.234 26.5276 20.9702 26.8495 20.6624 27.1276C19.2262 28.4737 17.79 29.8052 16.3537 31.1513C16.1193 31.3708 15.8701 31.5903 15.6503 31.839C15.4598 32.0585 15.3279 32.0439 15.108 31.8537C13.8916 30.7709 12.6606 29.7174 11.4442 28.6493C10.5209 27.8299 9.62689 26.9959 8.70359 26.1618C8.601 26.0741 8.52773 25.9716 8.41048 25.8546C9.1286 25.2108 9.83206 24.5816 10.5355 23.9671C11.7959 22.855 13.0709 21.743 14.3166 20.6163C14.3899 20.5578 14.4192 20.3383 14.3753 20.2652C13.0416 17.8802 11.7226 15.4951 10.3597 13.1248C10.0079 12.5102 9.59757 11.9249 9.17257 11.3689C8.01478 9.87647 6.40268 9.17413 4.58541 8.88149C3.91126 8.76444 3.22245 8.73517 2.5483 8.66201C2.2845 8.63275 2.18191 8.73517 2.16726 8.99855C2.00605 11.7055 3.07589 13.7832 5.2449 15.3488C6.25613 16.0658 7.3846 16.4462 8.601 16.6072C8.68894 16.6218 8.76221 16.6072 8.92342 16.6072C8.7329 16.2414 8.58635 15.9048 8.39583 15.5976C7.80961 14.7196 7.19408 13.8564 6.57855 12.9931C6.49062 12.876 6.31475 12.7882 6.1682 12.7443C5.53801 12.5541 4.89317 12.4078 4.26299 12.2176C4.11643 12.1737 3.96988 12.0566 3.85263 11.9103C4.43885 11.9103 5.02507 11.9103 5.72853 11.9103C5.06904 11.2226 4.46816 10.5788 3.79401 9.8472C5.58198 10.374 6.82769 11.486 8.00013 12.7297C8.02944 12.7151 8.05875 12.7151 8.10272 12.7004C8.07341 12.32 8.05875 11.9396 8.02944 11.5591C8.07341 11.5445 8.11737 11.5445 8.16134 11.5299C8.29324 11.9396 8.49841 12.3346 8.55704 12.7443C8.64497 13.4028 8.98204 13.9003 9.34843 14.427C10.2717 15.7439 11.1364 17.09 12.0157 18.4215C11.9424 18.4801 11.9278 18.5093 11.9131 18.5093C9.94931 18.6556 8.00013 18.5679 6.13889 17.8802C2.5483 16.6072 0.174112 13.1248 0.306012 9.32045C0.335322 8.54496 0.525843 7.7841 0.672398 7.02323C0.687054 6.90618 0.862919 6.74523 0.965507 6.74523C2.92934 6.73059 4.87852 6.83302 6.75442 7.47682C8.95273 8.22306 10.5502 9.71552 11.6933 11.6762C12.8218 13.6076 13.8623 15.5976 14.9468 17.5729C15.2399 18.0996 15.5623 18.6118 15.8261 19.0653C16.4563 18.4801 17.0865 17.9679 17.6434 17.368C19.0064 15.9048 20.2374 14.3538 21.234 12.6126C22.7435 9.96426 23.7694 7.16955 23.6522 4.06758C23.6375 3.51156 23.5642 2.95555 23.5056 2.31174C21.3806 2.95555 19.8417 4.24316 18.7279 6.04289C17.4236 8.13526 17.0132 10.3886 17.7167 12.876C17.8633 12.7151 17.9658 12.6273 18.0391 12.5249C18.4202 11.9249 18.7865 11.325 19.1383 10.7105C19.2116 10.5934 19.2116 10.4032 19.1969 10.2569C19.1236 9.62772 19.0357 8.99855 18.9624 8.36938C18.9478 8.28158 18.9771 8.19379 18.9771 8.01821Z" fill="white"/>
</svg>
