<svg xmlns="http://www.w3.org/2000/svg" width="206" height="60" fill="none" viewBox="0 0 206 60"><path fill="#004A5B" d="M139.738 16.012v-3.355c0-1.56.026-3.12 0-4.68 0-.495.131-.703.651-.677 1.016.026 2.032.026 3.048 0 .521-.026.677.156.677.676-.026 2.835 0 5.67 0 8.504 0 2.678-.026 5.383 0 8.061 0 .572-.156.754-.729.728a16.477 16.477 0 0 0-2.266 0c-.521.026-.782-.182-1.042-.572a1030.56 1030.56 0 0 0-5.678-8.867 1.023 1.023 0 0 0-.495-.416v9.803h-4.35a5.475 5.475 0 0 1-.052-.65c0-5.513 0-11-.026-16.513 0-.572.13-.754.729-.728.99.052 2.006.026 2.996 0 .495-.026.781.13 1.068.546 1.588 2.549 3.229 5.071 4.844 7.62.13.208.261.39.391.572.104-.026.182-.026.234-.052ZM61.626 43.212V34.97c0-.546.156-.702.703-.702 2.604.052 5.209-.104 7.814.078 3.698.286 5.808 4.239 4.141 7.593-.234.468-.208.78.104 1.196 1.38 1.769 1.563 3.745.677 5.747-.885 2.029-2.474 3.225-4.74 3.303-2.683.078-5.392.026-8.074.078-.495 0-.625-.208-.625-.65.026-2.809 0-5.617 0-8.4Zm4.401 1.795c0 .936-.026 1.82.026 2.704 0 .13.235.338.365.338 1.302.026 2.605.026 3.907-.026.625-.026 1.12-.754 1.146-1.456.026-.676-.469-1.508-1.068-1.534-1.459-.052-2.891-.026-4.376-.026Zm2.058-3.979v-.026c.495 0 .99.026 1.485 0 .755-.026 1.224-.494 1.25-1.196.026-.754-.417-1.274-1.198-1.326-.547-.026-1.12-.026-1.693-.026-2.032 0-2.032 0-1.928 2.054v.052c-.026.364.13.494.495.494.547-.026 1.068-.026 1.589-.026ZM61.626 16.298c0-2.757.026-5.513 0-8.244 0-.572.156-.754.729-.728 2.37.026 4.74.052 7.084 0 4.272-.104 6.59 4.395 4.767 7.801-.234.443-.078.703.182 1.015 2.475 3.094.912 7.905-2.865 8.92-.469.13-.99.181-1.484.181-2.58.026-5.158 0-7.736.052-.521 0-.677-.156-.651-.65 0-2.808-.026-5.59-.026-8.347Zm6.72 1.69c-.626 0-1.25-.026-1.876.026-.156 0-.417.26-.417.39a16.393 16.393 0 0 0 0 2.262c0 .157.235.39.365.39 1.276.027 2.553.053 3.829-.026.73-.026 1.25-.858 1.198-1.612-.052-.832-.625-1.43-1.406-1.456-.574 0-1.12.026-1.694.026Zm-.261-3.953v-.026c.547 0 1.094.026 1.615 0 .651-.026 1.094-.546 1.12-1.196.026-.702-.417-1.274-1.068-1.3-1.094-.052-2.214-.026-3.308 0-.13 0-.39.234-.39.364-.027.702.025 1.404.052 2.106l1.797.078c.052-.026.104-.026.182-.026ZM95.876 16.35c.026 5.123-4.063 9.257-9.246 9.283-5.053.026-9.194-4.108-9.247-9.231-.026-5.15 4.064-9.232 9.273-9.258 5.131-.026 9.194 4.03 9.22 9.206Zm-4.401 0c0-2.653-2.214-4.863-4.845-4.863-2.605 0-4.897 2.262-4.897 4.837 0 2.548 2.292 4.863 4.819 4.863 2.735 0 4.922-2.133 4.922-4.837ZM127.288 25.243c-1.562 0-2.995 0-4.428-.026-.156 0-.364-.208-.416-.39a37.083 37.083 0 0 1-.808-2.184c-.13-.39-.312-.546-.755-.546a165.37 165.37 0 0 1-5.079 0c-.443 0-.625.156-.729.546a31.299 31.299 0 0 1-.808 2.184c-.078.182-.312.364-.495.39-1.406.026-2.813.026-4.297.026.052-.208.078-.39.13-.546 2.058-5.643 4.115-11.26 6.173-16.903.13-.39.365-.52.755-.52 1.146.026 2.292.026 3.438 0 .521-.026.756.156.938.65 1.537 4.265 3.1 8.504 4.662 12.742.573 1.509 1.12 2.991 1.719 4.577Zm-7.423-7.307c-.495-1.404-.964-2.678-1.432-3.953h-.183c-.469 1.3-.963 2.575-1.458 3.953h3.073ZM173.599 25.243c.156-.442.286-.806.416-1.144 1.98-5.357 3.933-10.74 5.887-16.123.182-.52.417-.702.964-.676 1.12.052 2.266.026 3.386 0 .442 0 .651.13.807.546a4359.2 4359.2 0 0 0 6.147 16.773c.052.182.104.364.156.624-1.51 0-2.943 0-4.349-.026-.157 0-.339-.234-.417-.39a33.53 33.53 0 0 1-.834-2.262c-.104-.338-.286-.468-.677-.468-1.745.026-3.464 0-5.209.026-.209 0-.521.234-.599.416-.313.728-.547 1.508-.86 2.236-.078.182-.286.416-.443.416-1.406.078-2.839.052-4.375.052Zm9.064-11.234c-.078 0-.157 0-.209-.026-.468 1.3-.937 2.575-1.432 3.927h3.047c-.495-1.378-.963-2.627-1.406-3.9ZM172.895 20.614c-1.25 2.913-5.183 5.591-9.611 4.863-4.402-.676-7.683-4.473-7.762-8.971-.078-4.473 2.996-8.322 7.372-9.206 4.844-.962 8.725 1.924 9.949 4.68-1.172.625-2.318 1.223-3.49 1.847-.443.234-.521-.182-.677-.39-1.172-1.508-2.683-2.158-4.558-1.924-2.162.286-3.959 2.132-4.22 4.265-.234 2.106 1.12 4.29 3.152 5.019 2.136.78 4.428.078 5.678-1.769.286-.416.469-.494.912-.234 1.067.676 2.161 1.248 3.255 1.82ZM127.861 38.011c-1.25.729-2.448 1.43-3.672 2.133-.182-.286-.339-.52-.495-.728-.729-.988-1.98-1.378-3.047-.91-.313.13-.678.494-.704.806-.026.312.209.78.495.962.599.364 1.303.598 1.954.884 1.224.546 2.526.962 3.672 1.638 3.256 1.899 3.178 6.97-.234 8.868-2.423 1.352-6.929 1.43-9.403-.91-.729-.702-1.354-1.587-1.641-2.549 1.172-.676 2.37-1.378 3.621-2.106.13.234.234.416.338.598.886 1.43 2.683 2.054 4.194 1.482.573-.234 1.094-.52 1.12-1.222.026-.676-.495-.988-1.016-1.196-.99-.364-2.032-.65-3.022-1.04-.755-.286-1.536-.624-2.213-1.066-3.23-2.08-2.996-6.918.39-8.816 2.813-1.56 7.58-1.092 9.533 2.782.026.052.052.182.13.39ZM103.013 46.047c.208.312.339.546.495.78.886 1.352 2.865 1.924 4.324 1.144.364-.208.703-.65.807-1.066.13-.52-.286-.91-.755-1.092-1.042-.39-2.084-.728-3.126-1.118a16.617 16.617 0 0 1-2.188-.989c-1.745-1.014-2.5-2.574-2.422-4.576.052-1.977.99-3.433 2.683-4.37 2.787-1.533 7.553-1.065 9.507 2.861.052.104.078.209.156.364a194.19 194.19 0 0 0-3.673 2.159c-.182-.26-.338-.494-.494-.728-.704-.988-1.954-1.404-3.048-.936-.312.13-.703.494-.729.78-.026.338.234.806.521 1.014.521.338 1.12.546 1.719.78 1.146.468 2.344.832 3.412 1.404 2.005 1.067 2.969 2.783 2.813 5.071-.182 2.523-1.719 4.005-3.985 4.655-2.839.832-5.626.572-7.944-1.508-.652-.572-1.068-1.404-1.537-2.133-.078-.104.026-.468.156-.546 1.068-.676 2.162-1.3 3.308-1.95ZM105.956 25.243h-4.297a9.161 9.161 0 0 1-.053-.832V12.32c0-.858 0-.858-.859-.858-1.042 0-2.084-.026-3.126 0-.416 0-.573-.156-.573-.572a59.123 59.123 0 0 0 0-3.043c0-.39.13-.546.521-.546h12.372c.391 0 .547.13.547.52a62.432 62.432 0 0 0 0 3.12c0 .417-.156.52-.547.52-1.068-.025-2.136.027-3.177-.025-.625-.026-.808.156-.808.78.026 4.057.026 8.087.026 12.144-.026.286-.026.546-.026.884ZM204.854 21.134v4.11h-11.278V7.43c.156-.026.313-.078.495-.078 1.042 0 2.084.026 3.126-.026.573-.026.729.182.729.754-.026 4.03 0 8.062 0 12.092 0 .988 0 .988.99.988h5.209c.208-.026.443-.026.729-.026ZM78.19 43.212V34.97c0-.546.157-.728.704-.702.99.052 2.006.052 2.995 0 .547-.026.704.156.704.702-.026 4.057 0 8.087 0 12.144 0 1.014 0 1.014.963 1.014 1.746 0 3.517.026 5.262 0 .599 0 .755.182.73.755-.053.962-.027 1.898 0 2.86 0 .364-.105.546-.522.546H78.738c-.521 0-.547-.286-.547-.676v-8.4ZM96.606 34.267V52.21c-1.38 0-2.71 0-4.037-.026-.105 0-.235-.208-.287-.338-.052-.156-.026-.338-.026-.52V35.099c0-.858 0-.858.886-.858 1.146.026 2.266.026 3.464.026ZM152.658 25.243h-4.35c-.026-.286-.026-.52-.026-.78 0-5.435 0-10.87-.026-16.305 0-.65.156-.884.833-.832.964.052 1.954.052 2.918 0 .52-.026.651.182.651.676-.026 3.017 0 6.007 0 9.024V25.243ZM34.069 15.674c.469.962.86 1.742 1.25 2.548h.234c1.042-2.393 2.058-4.785 3.1-7.203h.13l-.156 1.924c-.078.65-.156 1.274-.26 1.924.052.026.104.078.156.104.442-.494.911-.962 1.458-1.56.026.286.052.494.026.676-.13 1.352-.677 2.445-1.875 3.173-.234.13-.39.442-.469.702-1.302 4.525-3.568 8.53-6.537 12.17-.105.156-.26.26-.495.546-.521-1.274-1.068-2.444-1.485-3.64-1.485-4.395-1.667-8.842-.026-13.263 1.745-4.733 5-8.14 9.48-10.402 1.72-.884 3.517-1.456 5.392-1.872.287-.078.574-.208.704.26 1.042 3.485 1.615 7.047 1.276 10.714-.443 4.993-2.084 9.596-4.454 13.938-2.422 4.421-5.418 8.426-8.934 12.04-2.891 2.991-5.912 5.877-8.856 8.79-.156.156-.39.26-.625.416 1.641 2.107 3.152 4.057 4.689 6.033.208-.156.364-.26.494-.39 1.772-1.638 3.543-3.303 5.34-4.94.39-.339.287-.573-.026-.885-1.094-1.248-2.162-2.548-3.23-3.823-.104-.104-.156-.234-.286-.416.781-.728 1.563-1.456 2.37-2.21 2.058 2.34 4.063 4.655 6.12 7.021-.494.52-.963 1.092-1.51 1.587-2.552 2.392-5.105 4.758-7.657 7.15-.417.39-.86.78-1.25 1.223-.34.39-.574.364-.964.026-2.162-1.924-4.35-3.797-6.512-5.695-1.64-1.456-3.23-2.939-4.87-4.42-.183-.157-.313-.339-.522-.547a394.76 394.76 0 0 1 3.777-3.354c2.24-1.977 4.506-3.953 6.72-5.956.13-.104.182-.494.104-.624-2.37-4.238-4.714-8.477-7.136-12.69-.626-1.092-1.355-2.132-2.11-3.12-2.058-2.653-4.923-3.901-8.153-4.421-1.198-.208-2.422-.26-3.62-.39-.469-.052-.651.13-.677.598-.287 4.81 1.615 8.503 5.47 11.286 1.797 1.274 3.802 1.95 5.964 2.236.156.026.287 0 .573 0-.339-.65-.599-1.248-.938-1.794-1.041-1.56-2.136-3.095-3.23-4.629-.156-.208-.468-.364-.729-.442-1.12-.338-2.266-.598-3.386-.936-.26-.078-.52-.286-.729-.546h3.334a245.246 245.246 0 0 1-3.438-3.667c3.177.936 5.391 2.913 7.475 5.123.052-.026.104-.026.182-.052-.052-.676-.078-1.352-.13-2.028.078-.026.156-.026.235-.052.234.728.599 1.43.703 2.158.156 1.17.755 2.054 1.406 2.99 1.641 2.34 3.178 4.733 4.74 7.1-.13.104-.155.156-.181.156-3.49.26-6.955.104-10.263-1.118C4.871 30.938.652 24.749.886 17.988c.052-1.378.39-2.73.65-4.083.027-.208.34-.494.522-.494 3.49-.026 6.954.156 10.288 1.3 3.907 1.327 6.746 3.979 8.778 7.464 2.005 3.432 3.855 6.969 5.782 10.48.521.936 1.094 1.846 1.563 2.652 1.12-1.04 2.24-1.95 3.23-3.017 2.422-2.6 4.61-5.357 6.381-8.451 2.683-4.707 4.506-9.674 4.298-15.187-.026-.988-.157-1.976-.26-3.12-3.778 1.144-6.512 3.432-8.492 6.63-2.318 3.72-3.047 7.724-1.797 12.145.26-.286.443-.442.573-.624a81.653 81.653 0 0 0 1.953-3.225c.13-.208.13-.546.105-.806-.13-1.118-.287-2.236-.417-3.354-.026-.156.026-.312.026-.624Z"/></svg>